<?xml version="1.0" encoding="utf-8"?>
<!-- Generator: Adobe Illustrator 15.0.0, SVG Export Plug-In . SVG Version: 6.00 Build 0)  -->
<!DOCTYPE svg PUBLIC "-//W3C//DTD SVG 1.1//EN" "http://www.w3.org/Graphics/SVG/1.1/DTD/svg11.dtd">
<svg version="1.1" id="Layer_1" xmlns="http://www.w3.org/2000/svg" xmlns:xlink="http://www.w3.org/1999/xlink" x="0px" y="0px"
	 width="150px" height="150px" viewBox="0 0 150 150" enable-background="new 0 0 150 150" xml:space="preserve">
<path fill="none" stroke="#020202" stroke-width="2" stroke-miterlimit="10" d="M32.317,33.363c0,0,1.595,4.963-4.608,5.671
	c-6.203,0.709-6.026,2.481-6.735,4.253c-0.708,1.772-2.304,18.077-1.595,19.318c0.708,1.241-0.709,3.013,1.949,2.304
	c2.659-0.709,11.875-6.203,12.76-7.444c0.886-1.241,1.772-2.126,1.95-2.658s1.063-3.56,0-5.59c-0.133-2.474,0-4.268,0-4.268
	s-0.731-0.266-0.798,1.529c-0.066,1.794-0.332,6.646-1.329,7.244c-0.997,0.598-0.731,2.126-3.921,2.924
	c-3.19,0.798-9.171,3.589-9.171,3.589l3.124-1.927l0.93-5.45l-0.997-6.048c0,0,0.133-4.121,5.383-4.519
	c5.316-2.061,9.237-3.257,11.165-3.522"/>
<path fill="none" stroke="#020202" stroke-width="2" stroke-miterlimit="10" d="M38.431,33.363c0,0-1.262,6.004,5.716,6.004
	c6.979,0,7.111,1.861,8.44,5.25c1.329,3.39,2.924,7.444,3.522,9.836c0.598,2.393,0.598,4.121,0.598,4.121s0.134,0.598-3.921-2.326
	c-4.054-2.924-6.247-4.187-7.311-4.253s-5.383-0.598-5.383-0.598s-0.923-0.997-1.492,2.06c-0.568,3.057-5.619,45.525-5.619,45.525
	l2.791,1.13l4.254-48.25l-0.333,47.32l3.257-0.266l-2.525-47.187l5.316,46.323c0,0-11.298,3.057-12.76,1.528
	c-1.462-1.528,8.042,2.791,8.042,2.791s13.225,1.463,16.083-3.854c2.857-5.316-1.795-4.187,0.332-19.539
	c2.127-15.352-0.598-19.938-0.598-19.938"/>
<path fill="none" stroke="#020202" stroke-width="2" stroke-miterlimit="10" d="M27,62.894l0.398,1.13c0,0-2.525,0.398-1.794,9.171
	c-5.25,6.978,2.392,4.053,0.199,7.709c-2.193,3.655-3.257,1.595-1.196,7.908c-0.665,6.846-1.662,4.188-0.532,8.44
	c1.13,4.254,2.858,11.232,3.323,13.758c0.465,2.525,0.864,6.247,0.598,7.908c-0.266,1.662-0.56,6.713,0.085,10.035
	c0.646,3.323,5.962,5.185,6.76,5.517c0.797,0.332,4.917,0.665,5.25,0c0.332-0.665,1.728,0.384,1.728,0.384s3.522,0.281,4.055-0.981
	c0.531-1.264,0.664-2.393,0.531-2.659c-0.133-0.266,3.124,0,3.788-1.595c0.665-1.595,0.532-14.355,0-15.618
	c-0.531-1.263-1.404-11.64-1.404-11.64"/>
<line fill="none" stroke="#020202" stroke-width="2" stroke-miterlimit="10" x1="41.488" y1="102.555" x2="40.425" y2="134.253"/>
<line fill="none" stroke="#020202" stroke-width="2" stroke-miterlimit="10" x1="46.406" y1="102.555" x2="46.406" y2="131.214"/>
<path fill="none" stroke="#020202" stroke-width="2" stroke-miterlimit="10" d="M36.57,44.816c0,0,0.399,4.051,1.263,6.114
	c0.863,2.063,0.863,2.063,0.863,2.063l-0.643,4.386c0,0-0.204,1.135-0.98-1.199c-0.777-2.334-0.761-1.382-0.642-3.048"/>
<path fill="none" stroke="#020202" stroke-width="2" stroke-miterlimit="10" d="M35.241,34.814c0,0,3.911-0.365,5.694-4.719
	c-1.739-0.498,0.354,0.266,0.653-0.266s1.396-3.556,0.997-4.121c-0.399-0.565-0.532-0.532-0.632-0.266
	c-0.1,0.266,0.765-5.749-1.163-6.846c-1.694-1.794-3.19-2.658-5.117-2.791"/>
<path fill="none" stroke="#000000" stroke-width="2" stroke-miterlimit="10" d="M35.203,15.819"/>
<line fill="none" stroke="#020202" stroke-width="2" stroke-miterlimit="10" x1="36.138" y1="15.807" x2="35.006" y2="15.819"/>
<path fill="none" stroke="#020202" stroke-width="2" stroke-miterlimit="10" d="M29.625,25.311c0,0,0.897,0.432,0.897,0.864
	s0.997-0.432,0.864-1.429c-0.133-0.997,0.665-1.828,2.094-2.459c1.429-0.632,2.053-0.598,2.053-0.598l-0.674-5.882
	c-1.703,0.133-3.024,0.997-4.522,2.791c-1.703,1.097-0.939,7.111-1.027,6.846c-0.088-0.266-0.206-0.299-0.558,0.266
	s0.617,3.589,0.881,4.121c0.264,0.532,2.114-0.232,0.577,0.266c1.576,4.354,5.031,4.719,5.031,4.719"/>
<path fill="none" stroke="#020202" stroke-width="2" stroke-miterlimit="10" d="M35.64,15.807l0.665,5.715v0.167
	c0,0,1.316-0.1,2.652,0.864s0.737,0.897,1.07,1.861c0.332,0.964,0.398,1.429,0.232,1.828s-0.1,0.964-0.1,0.964
	s0.764-0.997,0.797-1.429c0.033-0.432,0.995-0.465,0.995-0.465"/>
<path fill="none" stroke="#020202" stroke-width="2" stroke-miterlimit="10" d="M97.809,28.518c0,4.146,2.704,7.5,6.047,7.5"/>
<path fill="none" stroke="#020202" stroke-width="2" stroke-miterlimit="10" d="M108.996,28.518c0,4.146-2.299,7.5-5.141,7.5"/>
<path fill="none" stroke="#020202" stroke-width="2" stroke-miterlimit="10" d="M97.809,28.518c0-2.679,2.502-4.847,5.594-4.847"/>
<path fill="none" stroke="#020202" stroke-width="2" stroke-miterlimit="10" d="M108.996,28.518c0-2.679-2.502-4.847-5.594-4.847"/>
<path fill="none" stroke="#000000" stroke-width="2" stroke-miterlimit="10" d="M99.743,33.994c0,0,1.564,3.244,0,4.269
	c-1.563,1.024-9.582,2.731-9.974,4.183c-0.391,1.452-4.204,5.292-4.791,6.915c-0.586,1.622-0.978,2.22-0.978,2.22l6.453,2.732
	l0.489-2.305c0,0,0.488-3.414,3.031-4.78c2.542-1.366,9.582-4.402,12.223-5.573c2.64-1.171,7.431-2.708,8.506-2.537
	c1.076,0.171,4.694,0.891,6.063,2.537c1.369,1.646,2.249,2.708,3.716,5.933s1.368,2.458,2.64,6.213s2.25,8.11,2.738,12.378
	c0.488,4.269,0.88,3.5,0.88,8.452s0.586,7.854,0,11.183c-0.587,3.33-0.195,0.684-0.587,5.037c-0.391,4.354-0.586,5.378-0.782,8.964
	c-0.195,3.585,0.489,2.39-0.391,6.658s0,0.512-0.587,5.634s-0.195,5.379-1.369,6.659s-2.054,1.621-3.716,3.5
	c-1.662,1.878-2.346,2.646-4.009,3.329c-1.662,0.683-2.737,1.195-3.129-0.683c-0.391-1.878-1.857-6.146-2.64-7.598
	s-5.378-15.366-5.378-15.366s-1.467-6.118-1.564-8.438c-0.098-2.318-1.662-9.809-1.76-12.595c-0.098-2.785-0.978-5.858-1.075-8.59
	c-0.099-2.731-0.392-8.537-1.174-9.902c-0.782-1.366-1.662-3.506-1.955-3.802c-0.294-0.296,4.009-0.472,6.063,0
	c2.053,0.472,4.498,1.582,7.333,0.899c2.835-0.683,4.009-0.939,5.378-1.622"/>
<path fill="none" stroke="#000000" stroke-width="2" stroke-miterlimit="10" d="M90.259,65.409c0,0-0.293,0.427-0.88,3.073
	c-0.586,2.646-2.362,5.208-2.257,8.195c0.105,2.987,0.778,5.122,1.566,8.536c0.788,3.415-1.179,2.562,0,5.208
	s1.961,4.269,2.353,6.317s0.979,6.744,1.369,7.938c0.391,1.195,0.978,2.903,0.587,5.378c-0.391,2.476-0.391,5.806-1.271,9.135
	c-0.88,3.329-1.644,2.902-1.604,6.146c0.04,3.244-0.039,4.61,0,6.488c0.04,1.878,1.996,3.158,1.996,3.158h7.235l4.575-55.704
	l-3.108,53.058l7.92,2.646l-4.812-55.704"/>
<polyline fill="none" stroke="#000000" stroke-width="2" stroke-miterlimit="10" points="104.539,78.133 94.659,96.653 
	91.688,100.778 "/>
<path fill="none" stroke="#000000" stroke-width="2" stroke-miterlimit="10" d="M94.455,40.149c0,0,0.497,2.382,0.399,2.979
	s-0.66,1.793,0.013,1.963c0.672,0.17,1.21,1.091,1.21,1.091"/>
<path fill="none" stroke="#000000" stroke-width="2" stroke-miterlimit="10" d="M90.454,54.312l-0.87,1.792
	c-0.87,1.793-0.791,2.134-0.791,2.134l7.724,4.183l-0.439,0.939v2.049c0,0-0.147,1.024-0.811,1.024
	c-0.664,0-3.149-0.854-6.377-1.629c-3.227-0.776-6.16-2.98-6.746-5.029c-0.587-2.049,2.292-8.011,2.292-8.011"/>
<path fill="none" stroke="#000000" stroke-width="2" stroke-miterlimit="10" d="M97.251,60.885c0.946-0.171,3.426-0.512,3.426-0.512
	l1.897,6.64c0,0,0.219,1.128-0.955,1.47s-1.857,1.195-2.934,0.768c-1.075-0.427,0.175,0.256-2.053-1.28
	C94.404,66.434,97.251,60.885,97.251,60.885z"/>
<line fill="none" stroke="#000000" stroke-width="2" stroke-miterlimit="10" x1="99.186" y1="68.909" x2="99.186" y2="60.584"/>
<path fill="none" stroke="#000000" stroke-width="2" stroke-miterlimit="10" d="M105.997,35.34c0,0-0.393,0.973,0,1.615
	c0.394,0.642,2.099,1.077,4.455,1.738c2.355,0.661,2.919,0.567,2.919,0.567"/>
<path fill="none" stroke="#000000" stroke-width="2" stroke-miterlimit="10" d="M99.353,134.983l1.481-2.89l7.905,2.89
	c0,0,6.133-4.349,6.645-5.472c0.513-1.123,2.183-3.319,2.183-3.319"/>
<path fill="none" stroke="#000000" stroke-width="2" stroke-miterlimit="10" d="M97.904,27.629c0-4.375,2.459-7.915,5.498-7.915"/>
<path fill="none" stroke="#000000" stroke-width="2" stroke-miterlimit="10" d="M103.086,19.598c3.32-1.239,7.257,1.107,8.803,5.247
	"/>
<path fill="none" stroke="#000000" stroke-width="2" stroke-miterlimit="10" d="M111.767,24.858c1.607,0,2.911,1.382,2.911,3.087
	c0,1.705-1.304,3.087-2.911,3.087c-1.608,0-2.911-1.382-2.911-3.087c0-0.137,0.008-0.272,0.024-0.405"/>
<line fill="none" stroke="#000000" stroke-width="2" stroke-miterlimit="10" x1="89.291" y1="1" x2="51.76" y2="150.934"/>
</svg>
